HIERARCHY
ROOT RootJoint
{
    OFFSET   0.000000   0.000000   0.000000
    CHANNELS 6 Xposition Yposition Zposition Xrotation Yrotation Zrotation
    JOINT pelvis_lowerback
    {
        OFFSET   0.000000   0.093605   0.000000
        CHANNELS 3 Xrotation Yrotation Zrotation
        JOINT lowerback_torso
        {
            OFFSET   0.000000   0.100000   0.000000
            CHANNELS 3 Xrotation Yrotation Zrotation
            JOINT torso_head
            {
                OFFSET   0.000000   0.282350   0.000000
                CHANNELS 3 Xrotation Yrotation Zrotation
                End Site
                {
                    OFFSET   0.000000   0.192650   0.000000
                }
            }
            JOINT rTorso_Clavicle
            {
                OFFSET  -0.001000   0.157500   0.000000
                CHANNELS 3 Xrotation Yrotation Zrotation
                JOINT rShoulder
                {
                    OFFSET  -0.117647   0.000000   0.000000
                    CHANNELS 3 Xrotation Yrotation Zrotation
                    JOINT rElbow
                    {
                        OFFSET  -0.245000   0.000000   0.000000
                        CHANNELS 3 Xrotation Yrotation Zrotation
                        JOINT rWrist
                        {
                            OFFSET  -0.240000   0.000000   0.000000
                            CHANNELS 3 Xrotation Yrotation Zrotation
                            End Site
                            {
                                OFFSET  -0.116353  -0.002500   0.000000
                            }
                        }
                    }
                }
            }
            JOINT lTorso_Clavicle
            {
                OFFSET   0.001000   0.157500   0.000000
                CHANNELS 3 Xrotation Yrotation Zrotation
                JOINT lShoulder
                {
                    OFFSET   0.117647   0.000000   0.000000
                    CHANNELS 3 Xrotation Yrotation Zrotation
                    JOINT lElbow
                    {
                        OFFSET   0.245000   0.000000   0.000000
                        CHANNELS 3 Xrotation Yrotation Zrotation
                        JOINT lWrist
                        {
                            OFFSET   0.240000   0.000000   0.000000
                            CHANNELS 3 Xrotation Yrotation Zrotation
                            End Site
                            {
                                OFFSET   0.116353  -0.002500   0.000000
                            }
                        }
                    }
                }
            }
        }
    }
    JOINT rHip
    {
        OFFSET  -0.100000  -0.051395   0.000000
        CHANNELS 3 Xrotation Yrotation Zrotation
        JOINT rKnee
        {
            OFFSET   0.000000  -0.410000   0.000000
            CHANNELS 3 Xrotation Yrotation Zrotation
            JOINT rAnkle
            {
                OFFSET   0.000000  -0.390000   0.000000
                CHANNELS 3 Xrotation Yrotation Zrotation
                JOINT rToeJoint
                {
                    OFFSET   0.000000  -0.050000   0.130000
                    CHANNELS 3 Xrotation Yrotation Zrotation
                    End Site
                    {
                        OFFSET  -0.010000   0.002000   0.060000
                    }
                }
            }
        }
    }
    JOINT lHip
    {
        OFFSET   0.100000  -0.051395   0.000000
        CHANNELS 3 Xrotation Yrotation Zrotation
        JOINT lKnee
        {
            OFFSET   0.000000  -0.410000   0.000000
            CHANNELS 3 Xrotation Yrotation Zrotation
            JOINT lAnkle
            {
                OFFSET   0.000000  -0.390000   0.000000
                CHANNELS 3 Xrotation Yrotation Zrotation
                JOINT lToeJoint
                {
                    OFFSET   0.000000  -0.050000   0.130000
                    CHANNELS 3 Xrotation Yrotation Zrotation
                    End Site
                    {
                        OFFSET   0.010000   0.002000   0.060000
                    }
                }
            }
        }
    }
}
MOTION
Frames: 8
Frame Time:   0.008333
 -2.637811   0.893758   4.079111 -12.464386  -4.173791  -4.918885  11.710701  -4.795132  -2.591202   2.220197  -7.373247   2.449025   3.599913  -3.885487   3.822785  -4.645871  -8.077523  -6.301527 -20.648709 -15.699199  37.866293   0.216742  89.298625  -0.218054  -6.262514   4.841623  -3.050377   0.373324  -5.743547   2.046005  -7.830246 -22.112820 -44.356123 179.996732 -79.281781 -179.998977  -3.949856  -5.990234  -1.787851   1.591103 -18.204197  -7.958132  34.526288  -0.003685  -0.018002  -7.531766  -9.473772   9.019440 -18.259074  -0.003714  -0.053811  -5.485592   9.944416   7.232794  33.662856  -0.000296   0.001082 -16.331520   1.079054  -0.714035  -0.673883  -0.000009  -0.000407
 -2.638984   0.892382   4.077049 -12.211112  -4.256604  -4.442321  11.747318  -4.642890  -2.550818   2.186835  -7.347719   2.443390   3.558000  -3.953282   3.639275  -4.712597  -7.766138  -6.260199 -21.718225 -15.912448  37.314117   0.180352  88.665075  -0.182745  -6.346228   4.944958  -3.221800   0.302898  -5.824907   2.147763  -8.299503 -22.357047 -44.679196 179.993122 -78.824380 179.997271  -3.837106  -5.953676  -1.613742   1.510024 -18.035685  -8.160636  33.958516  -0.002495  -0.015597  -8.324220  -9.631518   8.484167 -20.053633  -0.004356  -0.047807  -5.995967   9.990747   6.879625  33.983382  -0.000369   0.000891 -16.350766   1.125884  -0.937870  -0.636519   0.000049  -0.000312
 -2.640082   0.891543   4.074898 -12.029341  -4.270793  -4.163424  11.871020  -4.521003  -2.353018   2.218086  -7.328888   2.504085   3.522215  -4.022258   3.457982  -4.801624  -7.406618  -6.205093 -22.754785 -16.080102  36.789749   0.143998  88.035171  -0.147561  -6.433019   4.898634  -3.500188   0.230209  -5.967819   2.194107  -8.765648 -22.632639 -45.024863 179.989014 -78.375818 179.992622  -3.730939  -6.034928  -1.509165   1.362101 -17.946633  -8.232478  33.775508  -0.001821  -0.012783  -9.477088  -9.798517   8.099578 -18.267357  -0.004848  -0.035140  -6.418506  10.016750   6.734145  34.188276  -0.000369   0.000832 -16.299690   1.218056  -1.149893  -0.603404   0.000083  -0.000208
 -2.641136   0.890943   4.072769 -11.858371  -4.253226  -3.915306  11.994181  -4.418245  -2.164999   2.268047  -7.319793   2.579286   3.495492  -4.086826   3.292464  -4.885206  -7.051215  -6.150685 -23.723710 -16.219167  36.309019   0.114923  87.447082  -0.119339  -6.520074   4.818854  -3.756438   0.159375  -6.128561   2.237832  -9.212562 -22.910760 -45.362384 179.986012 -77.946838 179.989043  -3.633196  -6.177028  -1.473284   1.195540 -17.864260  -8.286240  33.628541  -0.001336  -0.010486 -10.396798  -9.937559   7.715498 -16.688221  -0.004147  -0.025186  -6.791966  10.010534   6.637245  34.311250  -0.000368   0.000749 -16.255412   1.297374  -1.335603  -0.439998   0.000205   0.000023
 -2.642147   0.890486   4.070681 -11.690016  -4.234124  -3.663326  12.110485  -4.322250  -2.008112   2.316792  -7.312685   2.643367   3.471629  -4.146930   3.137486  -4.962694  -6.711120  -6.098481 -24.628269 -16.337649  35.863967   0.092531  86.900560  -0.097461  -6.604599   4.742699  -3.981210   0.090021  -6.288853   2.282344  -9.636781 -23.176613 -45.682055 179.984332 -77.542136 179.986823  -3.540905  -6.343815  -1.466125   1.018096 -17.776542  -8.353057  33.484319  -0.000963  -0.008642 -11.207939 -10.063609   7.344290 -15.281199  -0.003175  -0.017636  -7.138993   9.970824   6.582097  34.392233  -0.000387   0.000652 -16.221825   1.363422  -1.494606  -0.287169   0.000182   0.000148
 -2.643112   0.890141   4.068632 -11.527777  -4.252943  -3.393839  12.222359  -4.219414  -1.891694   2.360707  -7.296304   2.685447   3.448670  -4.202575   2.990539  -5.035546  -6.385657  -6.049010 -25.473852 -16.438030  35.451095   0.075149  86.393037  -0.080308  -6.685741   4.678762  -4.180709   0.023753  -6.438926   2.327035 -10.036022 -23.423451 -45.981297 179.983628 -77.163061 179.985629  -3.452736  -6.516217  -1.462457   0.825295 -17.678780  -8.453543  33.337752  -0.000655  -0.007131 -11.955181 -10.182181   6.989540 -13.965265  -0.002229  -0.012267  -7.473938   9.872756   6.602638  34.421508  -0.000376   0.000533 -16.204632   1.411148  -1.617591  -0.143533  -0.000027   0.000130
 -2.643984   0.889891   4.066638 -11.373981  -4.293518  -3.101346  12.332278  -4.119850  -1.805934   2.402176  -7.277147   2.705278   3.426491  -4.254489   2.850365  -5.104888  -6.077220  -6.006311 -26.265827 -16.523369  35.064440   0.061417  85.921427  -0.066590  -6.763291   4.627471  -4.365212  -0.038365  -6.579596   2.368882 -10.410980 -23.652194 -46.262656 179.983529 -76.809112 179.985093  -3.368231  -6.685013  -1.456484   0.626587 -17.577039  -8.593345  33.184009  -0.000406  -0.005899 -12.652306 -10.295050   6.651757 -12.717629  -0.001362  -0.008430  -7.805692   9.759789   6.684827  34.434699  -0.000342   0.000433 -16.189205   1.456033  -1.731636  -0.013302  -0.000288   0.000094
 -2.644669   0.889570   4.064129 -11.204359  -4.432154  -2.778269  12.493737  -4.022778  -1.830388   2.468677  -7.254258   2.742436   3.417019  -4.369925   2.714452  -5.175450  -5.608820  -5.896567 -27.285884 -16.581282  34.566760   0.054597  85.458053  -0.059648  -6.848214   4.482470  -4.593571  -0.195292  -6.789312   2.525719 -10.874365 -24.089948 -46.603367 179.979230 -76.365475 179.980363  -3.218789  -6.655396  -1.236788   0.109209 -17.541006  -8.900218  33.380750  -0.000597  -0.004811 -13.170042 -10.310143   6.416915 -11.879698  -0.001073  -0.007020  -8.361180   9.595870   6.913395  34.982264  -0.002807   0.000458 -16.470670   1.588799  -1.830892   0.054963  -0.000475   0.000074
